<?xml version="1.0" encoding="iso-8859-1"?>
<!-- Generator: Adobe Illustrator 19.0.0, SVG Export Plug-In . SVG Version: 6.00 Build 0)  -->
<svg version="1.1" id="Capa_1" xmlns="http://www.w3.org/2000/svg" xmlns:xlink="http://www.w3.org/1999/xlink" x="0px" y="0px"
	 viewBox="0 0 480.022 480.022" style="enable-background:new 0 0 480.022 480.022;" xml:space="preserve">
<path style="fill:#D9DDE1;" d="M8.022,8.011h464v320h-464V8.011z"/>
<path style="fill:#393856;" d="M288.022,248.011h152v224h-152V248.011z"/>
<path style="fill:#75C9C1;" d="M312.022,280.011h104v32h-104V280.011z"/>
<circle style="fill:#FAA41B;" cx="80.022" cy="384.011" r="72"/>
<circle style="fill:#FFD33F;" cx="160.022" cy="400.011" r="72"/>
<path d="M408.022,272.011h-88c-4.418,0-8,3.582-8,8v32c0,4.418,3.582,8,8,8h88c4.418,0,8-3.582,8-8v-32
	C416.022,275.593,412.44,272.011,408.022,272.011z M400.022,304.011h-72v-16h72V304.011z"/>
<path d="M312.022,368.011h24v16h-24V368.011z"/>
<path d="M352.022,368.011h24v16h-24V368.011z"/>
<path d="M392.022,368.011h24v16h-24V368.011z"/>
<path d="M312.022,400.011h24v16h-24V400.011z"/>
<path d="M352.022,400.011h24v16h-24V400.011z"/>
<path d="M392.022,400.011h24v16h-24V400.011z"/>
<path d="M312.022,432.011h24v16h-24V432.011z"/>
<path d="M352.022,432.011h24v16h-24V432.011z"/>
<path d="M392.022,432.011h24v16h-24V432.011z"/>
<path d="M312.022,336.011h24v16h-24V336.011z"/>
<path d="M352.022,336.011h24v16h-24V336.011z"/>
<path d="M392.022,336.011h24v16h-24V336.011z"/>
<path d="M472.022,0.011h-464c-4.418,0-8,3.582-8,8v320c0,4.418,3.582,8,8,8h8.152c-26.601,35.155-19.667,85.219,15.489,111.821
	c21.433,16.218,49.588,20.561,74.911,11.555c32.805,29.497,83.311,26.816,112.808-5.99s26.816-83.311-5.99-112.808
	c-1.79-1.609-3.651-3.137-5.579-4.578h72.208v136c0,4.418,3.582,8,8,8h152c4.418,0,8-3.582,8-8v-136h24c4.418,0,8-3.582,8-8v-320
	C480.022,3.593,476.44,0.011,472.022,0.011z M16.022,384.011c0.04-35.33,28.67-63.96,64-64c13.522-0.022,26.697,4.281,37.6,12.28
	c-7.941,4.984-14.95,11.317-20.712,18.712c-2.519-2.474-5.554-4.359-8.888-5.52v-9.472h-16v9.472
	c-12.473,4.393-19.023,18.066-14.629,30.539c3.38,9.596,12.455,16.009,22.629,15.989c0.136,0,0.264,0.056,0.4,0.056
	c-0.256,2.616-0.4,5.264-0.4,7.944s0.144,5.328,0.4,7.936c-0.136,0-0.264,0.064-0.4,0.064c-4.418,0-8-3.582-8-8h-16
	c0.042,10.134,6.445,19.15,16,22.528v9.472H86.75c2.203,5,4.914,9.761,8.088,14.208c-34.246,8.293-68.731-12.745-77.024-46.991
	C16.607,394.246,16.006,389.137,16.022,384.011z M80.022,360.011c3.658,0.035,6.813,2.577,7.624,6.144
	c-1.565,3.28-2.901,6.664-4,10.128c-1.199-0.185-2.411-0.276-3.624-0.272c-4.418,0-8-3.582-8-8S75.604,360.011,80.022,360.011z
	 M224.022,400.011c0,35.346-28.654,64-64,64s-64-28.654-64-64s28.654-64,64-64C195.352,336.051,223.982,364.681,224.022,400.011z
	 M432.022,464.011h-136v-208h136V464.011z M464.022,320.011h-16v-72c0-4.418-3.582-8-8-8h-152c-4.418,0-8,3.582-8,8v72H127.894
	c-28.32-21.334-67.344-21.334-95.664,0H16.022v-304h448V320.011z"/>
<path d="M272.022,160.011h176v-16h-168v-28.688l24-24l42.344,42.344c3.124,3.123,8.188,3.123,11.312,0l26.344-26.344l10.344,10.344
	c3.124,3.123,8.188,3.123,11.312,0l40-40l-11.312-11.312l-34.344,34.344l-10.344-10.344c-3.124-3.123-8.188-3.123-11.312,0
	l-26.344,26.344l-42.344-42.344c-3.124-3.123-8.188-3.123-11.312,0l-18.344,18.344V32.011h-16v120
	C264.022,156.429,267.604,160.011,272.022,160.011z"/>
<path d="M32.022,32.011h88v16h-88V32.011z"/>
<path d="M152.022,32.011h48v16h-48V32.011z"/>
<path d="M216.022,32.011h32v16h-32V32.011z"/>
<path d="M32.022,80.011h104v16h-104V80.011z"/>
<path d="M152.022,80.011h48v16h-48V80.011z"/>
<path d="M216.022,80.011h32v16h-32V80.011z"/>
<path d="M32.022,128.011h88v16h-88V128.011z"/>
<path d="M152.022,128.011h48v16h-48V128.011z"/>
<path d="M216.022,128.011h32v16h-32V128.011z"/>
<path d="M280.022,176.011h16v48h-16V176.011z"/>
<path d="M376.022,176.011h16v48h-16V176.011z"/>
<path d="M328.022,176.011h16v48h-16V176.011z"/>
<path d="M32.022,176.011h104v16h-104V176.011z"/>
<path d="M152.022,176.011h48v16h-48V176.011z"/>
<path d="M216.022,176.011h32v16h-32V176.011z"/>
<path d="M32.022,272.011h88v16h-88V272.011z"/>
<path d="M152.022,272.011h48v16h-48V272.011z"/>
<path d="M216.022,272.011h32v16h-32V272.011z"/>
<path d="M32.022,224.011h72v16h-72V224.011z"/>
<path d="M152.022,224.011h48v16h-48V224.011z"/>
<path d="M216.022,224.011h32v16h-32V224.011z"/>
<path d="M424.022,176.011h16v48h-16V176.011z"/>
<path d="M160.022,424.011c-4.418,0-8-3.582-8-8h-16c0.042,10.134,6.445,19.15,16,22.528v9.472h16v-9.472
	c12.473-4.393,19.023-18.066,14.629-30.539c-3.38-9.596-12.455-16.009-22.629-15.989c-4.418,0-8-3.582-8-8s3.582-8,8-8s8,3.582,8,8
	h16c-0.042-10.134-6.445-19.15-16-22.528v-9.472h-16v9.472c-12.473,4.393-19.023,18.066-14.629,30.539
	c3.38,9.596,12.455,16.009,22.629,15.989c4.418,0,8,3.582,8,8S164.44,424.011,160.022,424.011z"/>
<g>
</g>
<g>
</g>
<g>
</g>
<g>
</g>
<g>
</g>
<g>
</g>
<g>
</g>
<g>
</g>
<g>
</g>
<g>
</g>
<g>
</g>
<g>
</g>
<g>
</g>
<g>
</g>
<g>
</g>
</svg>
