<?xml version="1.0" encoding="iso-8859-1"?>
<!-- Generator: Adobe Illustrator 19.0.0, SVG Export Plug-In . SVG Version: 6.00 Build 0)  -->
<svg version="1.1" fill="#fff" id="Capa_1" xmlns="http://www.w3.org/2000/svg" xmlns:xlink="http://www.w3.org/1999/xlink" x="0px" y="0px"
	 viewBox="0 0 480.022 480.022" style="enable-background:new 0 0 480.022 480.022;" xml:space="preserve">
<g>
	<g>
		<path d="M472.022,0.011h-464c-4.418,0-8,3.582-8,8v320c0,4.418,3.582,8,8,8h8.152c-26.601,35.155-19.667,85.219,15.489,111.821
			c21.433,16.218,49.588,20.561,74.911,11.555c32.805,29.497,83.311,26.815,112.808-5.99s26.815-83.311-5.99-112.808
			c-1.79-1.609-3.651-3.137-5.579-4.578h72.208v136c0,4.418,3.582,8,8,8h152c4.418,0,8-3.582,8-8v-136h24c4.418,0,8-3.582,8-8v-320
			C480.022,3.593,476.44,0.011,472.022,0.011z M17.814,399.228c-1.206-4.982-1.808-10.091-1.792-15.217
			c0.04-35.33,28.67-63.96,64-64c13.522-0.022,26.697,4.281,37.6,12.28c-7.941,4.984-14.95,11.317-20.712,18.712
			c-2.519-2.474-5.554-4.359-8.888-5.52v-9.472h-16v9.472c-12.473,4.393-19.023,18.066-14.629,30.539
			c3.38,9.596,12.455,16.009,22.629,15.989c0.136,0,0.264,0.056,0.4,0.056c-0.256,2.616-0.4,5.264-0.4,7.944s0.144,5.328,0.4,7.936
			c-0.136,0-0.264,0.064-0.4,0.064c-4.418,0-8-3.582-8-8h-16c0.042,10.134,6.445,19.15,16,22.528v9.472H86.75
			c2.203,5,4.914,9.761,8.088,14.208C60.592,454.512,26.107,433.473,17.814,399.228z M87.646,366.155
			c-1.565,3.28-2.901,6.664-4,10.128c-1.199-0.185-2.411-0.276-3.624-0.272c-4.418,0-8-3.582-8-8s3.582-8,8-8
			C83.679,360.046,86.834,362.588,87.646,366.155z M224.022,400.011c0,35.346-28.654,64-64,64c-35.346,0-64-28.654-64-64
			c0-35.346,28.654-64,64-64C195.352,336.051,223.982,364.681,224.022,400.011z M432.022,464.011h-136v-208h136V464.011z
			 M464.022,320.011h-16v-72c0-4.418-3.582-8-8-8h-152c-4.418,0-8,3.582-8,8v72H127.894c-28.32-21.334-67.344-21.334-95.664,0
			H16.022v-304h448V320.011z"/>
	</g>
</g>
<g>
	<g>
		<path d="M280.022,144.011v-28.688l24-24l42.344,42.344c3.124,3.123,8.188,3.123,11.312,0l26.344-26.344l10.344,10.344
			c3.124,3.123,8.188,3.123,11.312,0l40-40l-11.312-11.312l-34.344,34.344l-10.344-10.344c-3.124-3.123-8.188-3.123-11.312,0
			l-26.344,26.344l-42.344-42.344c-3.124-3.123-8.188-3.123-11.312,0l-18.344,18.344V32.011h-16v120c0,4.418,3.582,8,8,8h176v-16
			H280.022z"/>
	</g>
</g>
<g>
	<g>
		<rect x="32.022" y="32.011" width="88" height="16"/>
	</g>
</g>
<g>
	<g>
		<rect x="152.022" y="32.011" width="48" height="16"/>
	</g>
</g>
<g>
	<g>
		<rect x="216.022" y="32.011" width="32" height="16"/>
	</g>
</g>
<g>
	<g>
		<rect x="32.022" y="80.011" width="104" height="16"/>
	</g>
</g>
<g>
	<g>
		<rect x="152.022" y="80.011" width="48" height="16"/>
	</g>
</g>
<g>
	<g>
		<rect x="216.022" y="80.011" width="32" height="16"/>
	</g>
</g>
<g>
	<g>
		<rect x="32.022" y="128.011" width="88" height="16"/>
	</g>
</g>
<g>
	<g>
		<rect x="152.022" y="128.011" width="48" height="16"/>
	</g>
</g>
<g>
	<g>
		<rect x="216.022" y="128.011" width="32" height="16"/>
	</g>
</g>
<g>
	<g>
		<rect x="280.022" y="176.011" width="16" height="48"/>
	</g>
</g>
<g>
	<g>
		<rect x="376.022" y="176.011" width="16" height="48"/>
	</g>
</g>
<g>
	<g>
		<rect x="328.022" y="176.011" width="16" height="48"/>
	</g>
</g>
<g>
	<g>
		<path d="M408.022,272.011h-88c-4.418,0-8,3.582-8,8v32c0,4.418,3.582,8,8,8h88c4.418,0,8-3.582,8-8v-32
			C416.022,275.593,412.44,272.011,408.022,272.011z M400.022,304.011h-72v-16h72V304.011z"/>
	</g>
</g>
<g>
	<g>
		<rect x="312.022" y="368.011" width="24" height="16"/>
	</g>
</g>
<g>
	<g>
		<rect x="352.022" y="368.011" width="24" height="16"/>
	</g>
</g>
<g>
	<g>
		<rect x="392.022" y="368.011" width="24" height="16"/>
	</g>
</g>
<g>
	<g>
		<rect x="312.022" y="400.011" width="24" height="16"/>
	</g>
</g>
<g>
	<g>
		<rect x="352.022" y="400.011" width="24" height="16"/>
	</g>
</g>
<g>
	<g>
		<rect x="392.022" y="400.011" width="24" height="16"/>
	</g>
</g>
<g>
	<g>
		<rect x="312.022" y="432.011" width="24" height="16"/>
	</g>
</g>
<g>
	<g>
		<rect x="352.022" y="432.011" width="24" height="16"/>
	</g>
</g>
<g>
	<g>
		<rect x="392.022" y="432.011" width="24" height="16"/>
	</g>
</g>
<g>
	<g>
		<rect x="312.022" y="336.011" width="24" height="16"/>
	</g>
</g>
<g>
	<g>
		<rect x="352.022" y="336.011" width="24" height="16"/>
	</g>
</g>
<g>
	<g>
		<rect x="392.022" y="336.011" width="24" height="16"/>
	</g>
</g>
<g>
	<g>
		<rect x="32.022" y="176.011" width="104" height="16"/>
	</g>
</g>
<g>
	<g>
		<rect x="152.022" y="176.011" width="48" height="16"/>
	</g>
</g>
<g>
	<g>
		<rect x="216.022" y="176.011" width="32" height="16"/>
	</g>
</g>
<g>
	<g>
		<rect x="32.022" y="272.011" width="88" height="16"/>
	</g>
</g>
<g>
	<g>
		<rect x="152.022" y="272.011" width="48" height="16"/>
	</g>
</g>
<g>
	<g>
		<rect x="216.022" y="272.011" width="32" height="16"/>
	</g>
</g>
<g>
	<g>
		<rect x="32.022" y="224.011" width="72" height="16"/>
	</g>
</g>
<g>
	<g>
		<rect x="152.022" y="224.011" width="48" height="16"/>
	</g>
</g>
<g>
	<g>
		<rect x="216.022" y="224.011" width="32" height="16"/>
	</g>
</g>
<g>
	<g>
		<path d="M160.022,392.011c-4.418,0-8-3.582-8-8s3.582-8,8-8s8,3.582,8,8h16c-0.042-10.134-6.445-19.15-16-22.528v-9.472h-16v9.472
			c-12.473,4.393-19.023,18.066-14.629,30.539c3.38,9.596,12.455,16.009,22.629,15.989c4.418,0,8,3.582,8,8s-3.582,8-8,8
			s-8-3.582-8-8h-16c0.042,10.134,6.445,19.15,16,22.528v9.472h16v-9.472c12.473-4.393,19.023-18.066,14.629-30.539
			C179.271,398.404,170.196,391.992,160.022,392.011z"/>
	</g>
</g>
<g>
	<g>
		<rect x="424.022" y="176.011" width="16" height="48"/>
	</g>
</g>
<g>
</g>
<g>
</g>
<g>
</g>
<g>
</g>
<g>
</g>
<g>
</g>
<g>
</g>
<g>
</g>
<g>
</g>
<g>
</g>
<g>
</g>
<g>
</g>
<g>
</g>
<g>
</g>
<g>
</g>
</svg>
