<svg height="464pt" viewBox="0 0 464 464" width="464pt" xmlns="http://www.w3.org/2000/svg"><path d="m464 432h-304v-432h240l64 64zm0 0" fill="#60d1e0"/><path d="m216 208h-56v224h80v-200c0-13.253906-10.746094-24-24-24zm0 0" fill="#5ac6d4"/><path d="m208 0h112v256h-112zm0 0" fill="#5ac6d4"/><path d="m192 0h112v240h-112zm0 0" fill="#ffb531"/><path d="m232 24h48v16h-48zm0 0" fill="#f7a116"/><path d="m232 56h48v16h-48zm0 0" fill="#f7a116"/><path d="m232 88h48v16h-48zm0 0" fill="#f7a116"/><path d="m232 120h48v16h-48zm0 0" fill="#f7a116"/><path d="m240 152h40v16h-40zm0 0" fill="#f7a116"/><path d="m248 184h32v16h-32zm0 0" fill="#f7a116"/><path d="m418.6875 360.214844c-4.648438-.792969-9.410156.507812-13.011719 3.550781-3.601562 3.042969-5.679687 7.519531-5.675781 12.234375 0-8.835938-7.164062-16-16-16s-16 7.164062-16 16c0-8.835938-7.164062-16-16-16s-16 7.164062-16 16v-63.144531c.179688-8.039063-5.429688-15.046875-13.3125-16.640625-4.648438-.792969-9.410156.507812-13.011719 3.550781-3.601562 3.042969-5.679687 7.519531-5.675781 12.234375v112l-33.351562-20c-4.144532-2.496094-9.277344-2.695312-13.601563-.527344l-1.253906.632813c-4.777344 2.394531-7.792969 7.277343-7.792969 12.621093-.003906 4.5625 2.199219 8.847657 5.910156 11.496094l50.089844 35.777344h128v-87.144531c.179688-8.039063-5.429688-15.046875-13.3125-16.640625zm0 0" fill="#fec9a3"/><path d="m24 192h176c13.253906 0 24 10.746094 24 24v224c0 13.253906-10.746094 24-24 24h-176c-13.253906 0-24-10.746094-24-24v-224c0-13.253906 10.746094-24 24-24zm0 0" fill="#e94f4f"/><path d="m32 240h160v64h-160zm0 0" fill="#60d1e0"/><path d="m32 240h160v16h-160zm0 0" fill="#5ac6d4"/><path d="m32 336h32v32h-32zm0 0" fill="#ffb531"/><path d="m96 336h32v32h-32zm0 0" fill="#ffb531"/><path d="m32 400h32v32h-32zm0 0" fill="#ffb531"/><path d="m96 400h32v32h-32zm0 0" fill="#ffb531"/><path d="m160 336h32v32h-32zm0 0" fill="#ffb531"/><path d="m160 400h32v32h-32zm0 0" fill="#ffb531"/><path d="m152 264h16v16h-16zm0 0" fill="#3a9cc9"/><path d="m120 264h16v16h-16zm0 0" fill="#3a9cc9"/><path d="m88 264h16v16h-16zm0 0" fill="#3a9cc9"/><path d="m144 144v-112h64v112zm0 0" fill="#3d4d63"/><path d="m120.726562 96c-2.238281-.191406-4.457031.558594-6.125 2.0625-1.667968 1.523438-2.609374 3.679688-2.601562 5.9375v8c0 4.417969-3.582031 8-8 8s-8-3.582031-8-8v-48c0-4.417969 3.582031-8 8-8s8 3.582031 8 8v8c-.007812 2.253906.933594 4.40625 2.59375 5.929688 1.664062 1.523437 3.890625 2.277343 6.132812 2.070312l87.273438-8v-15.769531l-80 7.007812c-.222656-13.253906-11.144531-23.820312-24.398438-23.597656-13.257812.21875-23.824218 11.144531-23.601562 24.398437v48c-.210938 13.253907 10.363281 24.171876 23.621094 24.382813 13.253906.207031 24.167968-10.367187 24.378906-23.621094l80 7.589844v-16.390625zm0 0" fill="#e0e0de"/><path d="m400 0 64 64h-64zm0 0" fill="#9fe4ed"/><g fill="#3fb7c7"><path d="m342.777344 114.6875 29.3125 9.777344c2.304687.765625 3.875 2.90625 3.910156 5.335937v.246094c-.023438 3.269531-2.660156 5.917969-5.929688 5.953125h-20c-3.355468-.003906-6.074218-2.722656-6.078124-6.078125v-1.921875h-15.992188v1.921875c.011719 12.1875 9.890625 22.066406 22.078125 22.078125h1.921875v16h16v-16h2.0625c11.875-.066406 21.566406-9.515625 21.9375-21.382812 0-.144532 0-.296876 0-.449219.132812-9.453125-5.875-17.90625-14.847656-20.886719l-29.320313-9.769531c-2.445312-.855469-4.035156-3.21875-3.910156-5.808594.011719-3.148437 2.566406-5.699219 5.71875-5.703125h20.28125c3.355469.003906 6.074219 2.722656 6.078125 6.078125v1.921875h16v-1.921875c-.011719-12.1875-9.890625-22.066406-22.078125-22.078125h-1.921875v-16h-16v16h-2.398438c-10.695312.09375-19.757812 7.886719-21.457031 18.445312-1.699219 10.558594 4.46875 20.800782 14.589844 24.242188zm0 0"/><path d="m328 184h112v16h-112zm0 0"/><path d="m328 216h112v16h-112zm0 0"/><path d="m328 248h112v16h-112zm0 0"/><path d="m360 280h80v16h-80zm0 0"/><path d="m360 312h80v16h-80zm0 0"/><path d="m408 152h32v16h-32zm0 0"/><path d="m248 280h40v16h-40zm0 0"/><path d="m248 312h32v16h-32zm0 0"/><path d="m248 344h32v16h-32zm0 0"/><path d="m160 144h32v16h-32zm0 0"/></g><path d="m208 48v96h-16v16h32v-112zm0 0" fill="#f7a116"/></svg>