<?xml version="1.0" encoding="iso-8859-1"?>
<!-- Generator: Adobe Illustrator 19.0.0, SVG Export Plug-In . SVG Version: 6.00 Build 0)  -->
<svg version="1.1" id="Capa_1" xmlns="http://www.w3.org/2000/svg" xmlns:xlink="http://www.w3.org/1999/xlink" x="0px" y="0px"
	 viewBox="0 0 512 512" style="enable-background:new 0 0 512 512;" xml:space="preserve">
<g>
	<g>
		<path d="M256,0c-8.284,0-15,6.716-15,15s6.716,15,15,15c124.617,0,226,101.383,226,226S380.617,482,256,482S30,380.617,30,256
			c0-60.357,25.37-118.632,69.017-161.036V121c0,8.284,6.716,15,15,15S129,129.284,129,121V61c0-8.284-6.699-15-14.983-15H53.5
			c-8.284,0-15,6.716-15,15s6.716,14.9,15,14.9h22.012C27.008,124.322,0,189.079,0,256c0,140.74,115.209,256,256,256
			c140.74,0,256-115.209,256-256C512,115.26,396.791,0,256,0z"/>
	</g>
</g>
<g>
	<g>
		<path d="M256,91c-90.975,0-165,74.049-165,165c0,90.981,74.055,165,165,165c90.975,0,165-74.049,165-165
			C421,165.019,346.945,91,256,91z M361.429,340.216l-9.969-9.97c-5.857-5.858-15.355-5.858-21.213,0
			c-5.858,5.858-5.858,15.355,0,21.213l9.97,9.97C320.792,376.976,297,387.274,271,390.162V376c0-8.284-6.716-15-15-15
			s-15,6.716-15,15v14.162c-26-2.888-49.792-13.186-69.216-28.733l9.97-9.97c5.858-5.858,5.858-15.355,0-21.213
			c-5.857-5.858-15.355-5.858-21.213,0l-9.97,9.97C135.024,320.792,124.725,297,121.838,271H136c8.284,0,15-6.716,15-15
			s-6.716-15-15-15h-14.162c2.888-26,13.186-49.792,28.733-69.216l9.97,9.97c5.857,5.858,15.356,5.858,21.213,0
			c5.858-5.858,5.858-15.355,0-21.213l-9.97-9.97C191.208,135.024,215,124.726,241,121.838V136c0,8.284,6.716,15,15,15
			s15-6.716,15-15v-14.162c26,2.888,49.792,13.186,69.216,28.733l-9.97,9.97c-5.858,5.858-5.858,15.355,0,21.213
			c5.857,5.858,15.356,5.858,21.213,0l9.969-9.97C376.976,191.208,387.275,215,390.162,241H376c-8.284,0-15,6.716-15,15
			s6.716,14.9,15,14.9h14.162C387.274,296.9,376.976,320.792,361.429,340.216z"/>
	</g>
</g>
<g>
	<g>
		<path d="M296.607,275.393L271,249.787V196c0-8.284-6.716-15-15-15s-15,6.716-15,15v60c0,3.978,1.581,7.793,4.394,10.606l30,30
			c5.857,5.858,15.356,5.858,21.213,0C302.465,290.748,302.465,281.251,296.607,275.393z"/>
	</g>
</g>
<g>
</g>
<g>
</g>
<g>
</g>
<g>
</g>
<g>
</g>
<g>
</g>
<g>
</g>
<g>
</g>
<g>
</g>
<g>
</g>
<g>
</g>
<g>
</g>
<g>
</g>
<g>
</g>
<g>
</g>
</svg>
