<svg height="512pt" viewBox="0 -58 512 512" width="512pt" xmlns="http://www.w3.org/2000/svg"><path d="m496.710938 292.289062h-14.019532v-241.824218c0-27.828125-22.640625-50.464844-50.464844-50.464844h-352.460937c-27.824219 0-50.464844 22.636719-50.464844 50.464844v241.824218h-14.011719c-8.441406 0-15.289062 6.847657-15.289062 15.292969v42.445313c0 24.953125 19.664062 45.304687 44.046875 45.890625.183594.003906.363281.027343.546875.027343h422.804688c.183593 0 .359374-.023437.542968-.027343 24.386719-.578125 44.058594-20.933594 44.058594-45.890625v-42.445313c0-8.445312-6.847656-15.292969-15.289062-15.292969zm-451.59375 73.074219c-8.015626 0-14.535157-6.878906-14.535157-15.335937v-27.15625h174.964844c6.085937 16.3125 21.613281 27.9375 39.757813 27.9375h21.398437c18.144531 0 33.667969-11.625 39.753906-27.9375h174.960938v27.15625c0 8.457031-6.519531 15.335937-14.535157 15.335937zm52.917968-184.828125h-38.152344v-33.902344h38.152344c8.445313 0 15.289063-6.84375 15.289063-15.289062s-6.84375-15.292969-15.289063-15.292969h-38.152344v-65.585937c0-10.964844 8.921876-19.882813 19.886719-19.882813h352.457031c10.964844 0 19.882813 8.917969 19.882813 19.882813v65.589844h-38.152344c-8.441406 0-15.289062 6.84375-15.289062 15.289062s6.847656 15.289062 15.289062 15.289062h38.152344v33.902344h-38.152344c-8.441406 0-15.289062 6.847656-15.289062 15.292969 0 8.441406 6.847656 15.289063 15.289062 15.289063h38.152344v81.171874h-158.199219c-8.441406 0-15.289062 6.847657-15.289062 15.292969 0 6.972657-5.347656 12.648438-11.917969 12.648438h-21.398437c-6.570313 0-11.917969-5.675781-11.917969-12.648438 0-8.445312-6.847657-15.292969-15.292969-15.292969h-158.210938v-81.171874h38.152344c8.445313 0 15.289063-6.847657 15.289063-15.289063 0-8.445313-6.84375-15.292969-15.289063-15.292969zm0 0"/><path d="m209.660156 233.90625c2.3125 1.28125 4.867188 1.917969 7.417969 1.917969 2.8125 0 5.621094-.773438 8.089844-2.3125l91.335937-56.953125c4.480469-2.789063 7.199219-7.695313 7.199219-12.972656 0-5.28125-2.722656-10.183594-7.199219-12.976563l-91.335937-56.949219c-4.710938-2.941406-10.652344-3.09375-15.507813-.398437-4.859375 2.699219-7.871094 7.816406-7.871094 13.371093v113.902344c0 5.554688 3.011719 10.671875 7.871094 13.371094zm22.710938-99.71875 47.140625 29.398438-47.140625 29.394531zm0 0"/></svg>