<?xml version="1.0" encoding="utf-8"?>
<!-- Generator: Adobe Illustrator 22.1.0, SVG Export Plug-In . SVG Version: 6.00 Build 0)  -->
<svg version="1.1" id="Layer_1" xmlns="http://www.w3.org/2000/svg" xmlns:xlink="http://www.w3.org/1999/xlink" x="0px" y="0px"
	 viewBox="0 0 163 46" style="enable-background:new 0 0 163 46;" xml:space="preserve">
<style type="text/css">
	.st0{fill:#5D597A;}
	.st1{fill:#38A063;}
</style>
<g id="Logo" transform="translate(-1046 -100.015)">
	<path id="Shape_18" class="st0" d="M1112.6,145.4l2.3-0.9l-0.3,0.7l-2.1,0.8L1112.6,145.4z M1104.7,144.3l0.5-1.2l1.1,0.5l0.4-0.9
		l1.2,0.6l-0.5,1.2l-1.1-0.5l-0.4,0.9L1104.7,144.3z M1082.9,144.3l0.5-1.2l1.1,0.5l0.4-0.9l1.2,0.6l-0.5,1.2l-1.1-0.5l-0.4,0.9
		L1082.9,144.3z M1052.3,144.3l0.5-1.2l1.1,0.5l0.4-0.9l1.2,0.6l-0.5,1.2l-1.1-0.5l-0.4,0.9L1052.3,144.3z M1146.7,143.8l0.5-1.1
		l1.1,0.5l-0.4,1.1L1146.7,143.8z M1113,143.8l0.5-1.1l1.1,0.5l-0.4,1.1L1113,143.8z M1136.7,143.8l0.5-1.1l1.1,0.5l-0.4,1.1
		L1136.7,143.8z M1071.5,143.6l2.3-0.9l-0.3,0.7l-2.1,0.8L1071.5,143.6z M1117.2,143.8c-0.3-0.2-0.6-0.4-0.8-0.6l0.4-0.9
		c0.1,0.1,0.3,0.2,0.4,0.2c0.1,0,0.3,0.1,0.4,0.1c0.3,0,0.5-0.1,0.8-0.2c0.3-0.1,0.5-0.3,0.6-0.5l-0.3,0l-0.2,0h-0.1h0
		c-0.3,0-0.5-0.1-0.7-0.3c-0.2-0.2-0.2-0.4-0.2-0.7c0-0.2,0-0.3,0.1-0.5c0-0.2,0.1-0.4,0.1-0.5c0.1-0.2,0.1-0.4,0.2-0.6
		s0.1-0.4,0.2-0.5c0.5,0,1,0.2,1.4,0.5c0.3,0.3,0.5,0.7,0.5,1.1h1.9c-0.2,0-0.4,0.1-0.5,0.2c-0.1,0.1-0.2,0.3-0.2,0.5
		c0-0.2,0.1-0.4,0.2-0.5c0.1-0.1,0.3-0.2,0.5-0.2h1.8c0.2,0,0.4,0,0.6,0s0.4,0,0.5-0.1c0.2,0,0.4-0.1,0.6-0.1
		c0.2-0.1,0.4-0.2,0.6-0.2c-0.1,0-0.2-0.1-0.3-0.1s-0.2-0.1-0.4-0.1s-0.2-0.1-0.4-0.1c-0.1,0-0.2,0-0.2,0c-0.1,0-0.2,0.1-0.3,0.1
		c-0.1,0.1-0.2,0.2-0.2,0.4l-1-0.6c0.1-0.2,0.2-0.5,0.3-0.7c0.1-0.2,0.2-0.3,0.3-0.4c0.1-0.1,0.2-0.2,0.3-0.2c0.1,0,0.3-0.1,0.4-0.1
		c0.3,0,0.5,0,0.7,0.1c0.3,0.1,0.5,0.2,0.8,0.3s0.6,0.2,1,0.3c0.4,0.1,0.8,0.2,1.2,0.2l-0.4,1.5c-0.3,0-0.6,0-0.8,0.1
		c-0.3,0.1-0.6,0.2-0.8,0.4c-0.3,0.2-0.5,0.3-0.7,0.4c-0.2,0.1-0.4,0.2-0.6,0.3c-0.2,0.1-0.5,0.1-0.7,0.2c-0.4,0-0.7,0.1-1.1,0.1
		h-3.4c-0.1,0.3-0.2,0.5-0.3,0.8c-0.1,0.2-0.3,0.5-0.5,0.7c-0.2,0.2-0.4,0.4-0.6,0.5c-0.2,0.1-0.5,0.2-0.8,0.2
		C1117.7,144,1117.4,143.9,1117.2,143.8L1117.2,143.8z M1087.2,143.8c-0.3-0.2-0.6-0.4-0.8-0.6l0.4-0.9c0.1,0.1,0.3,0.2,0.4,0.2
		c0.1,0,0.3,0.1,0.4,0.1c0.3,0,0.6-0.1,0.8-0.2c0.3-0.1,0.5-0.4,0.7-0.6c-0.1,0.1-0.2,0.1-0.3,0.1c-0.1,0-0.2,0-0.3,0
		c-0.1,0-0.3,0-0.4-0.1c-0.1,0-0.2-0.1-0.3-0.2c-0.1-0.1-0.2-0.2-0.2-0.3c0-0.1-0.1-0.2-0.1-0.4c0-0.2,0-0.3,0.1-0.5
		c0-0.2,0.1-0.4,0.2-0.5c0.1-0.2,0.1-0.4,0.2-0.5s0.2-0.4,0.2-0.5c0.3,0,0.7,0.1,1,0.3c0.2,0.1,0.4,0.3,0.6,0.5
		c0.1,0.2,0.2,0.4,0.3,0.7c0.1,0.3,0.1,0.5,0.1,0.8c0,0.4-0.1,0.7-0.2,1.1c-0.1,0.3-0.3,0.7-0.5,1c-0.2,0.3-0.4,0.5-0.7,0.7
		c-0.3,0.2-0.6,0.3-1,0.3C1087.6,144,1087.4,143.9,1087.2,143.8L1087.2,143.8z M1139.5,143.8c-0.3-0.2-0.6-0.3-0.8-0.6l0.4-0.9
		c0.1,0.1,0.3,0.2,0.4,0.2c0.1,0,0.3,0.1,0.4,0.1c0.2,0,0.4,0,0.6-0.1c0.2-0.1,0.4-0.2,0.5-0.3c0.2-0.1,0.3-0.3,0.4-0.5
		c0.1-0.2,0.2-0.4,0.3-0.6c-0.3-0.4-0.4-0.8-0.5-1.2l1.2-0.8c0,0.4,0.2,0.7,0.4,1c0.2,0.2,0.5,0.4,0.7,0.4h1.2
		c-0.2,0-0.4,0.1-0.5,0.2c-0.1,0.1-0.2,0.3-0.2,0.5c0-0.2,0.1-0.4,0.2-0.5c0.1-0.1,0.3-0.2,0.5-0.2h1.8c0.2,0,0.4,0,0.6,0
		c0.2,0,0.4,0,0.6-0.1c0.2,0,0.4-0.1,0.6-0.1c0.2-0.1,0.4-0.1,0.5-0.2l-0.6-0.2l-0.4-0.1c-0.1,0-0.2,0-0.3,0c-0.1,0-0.2,0.1-0.3,0.1
		c-0.1,0.1-0.2,0.2-0.2,0.4l-1-0.6c0.1-0.2,0.2-0.5,0.3-0.7c0.1-0.2,0.2-0.3,0.3-0.4c0.1-0.1,0.2-0.2,0.3-0.2c0.1,0,0.3-0.1,0.4-0.1
		c0.2,0,0.5,0,0.7,0.1c0.2,0.1,0.5,0.2,0.8,0.3s0.6,0.2,1,0.3c0.4,0.1,0.8,0.2,1.2,0.3l-0.5,1.4h2.4c-0.2,0-0.4,0.1-0.5,0.2
		c-0.1,0.1-0.2,0.3-0.2,0.5c0-0.2,0.1-0.4,0.2-0.5c0.1-0.1,0.3-0.2,0.5-0.2h2.6l-0.4-2l1.4-0.5c0,0.2,0.1,0.4,0.1,0.6
		s0.1,0.4,0.1,0.7s0.1,0.4,0.1,0.6c0,0.2,0,0.3,0,0.5c0,0.3-0.1,0.6-0.2,0.8c-0.1,0.2-0.3,0.4-0.5,0.5c-0.2,0.1-0.5,0.2-0.7,0.2
		c-0.3,0-0.6,0.1-0.9,0.1h-3.1c-0.5,0-0.9-0.1-1.3-0.2c-0.4-0.2-0.7-0.5-0.8-0.8c-0.2,0.2-0.3,0.3-0.5,0.4c-0.2,0.1-0.4,0.3-0.6,0.3
		c-0.3,0.1-0.6,0.2-0.9,0.2c-0.4,0.1-0.8,0.1-1.2,0.1h-2.7c-0.2,0-0.4,0-0.5,0c-0.2,0-0.3-0.1-0.4-0.1c-0.1,0.3-0.2,0.5-0.3,0.8
		c-0.1,0.3-0.3,0.5-0.5,0.7c-0.2,0.2-0.4,0.4-0.7,0.5c-0.3,0.1-0.6,0.2-0.9,0.2C1139.9,144,1139.7,143.9,1139.5,143.8L1139.5,143.8z
		 M1090.8,143.8c-0.3-0.2-0.6-0.3-0.8-0.6l0.4-0.9c0.1,0.1,0.3,0.2,0.4,0.2c0.1,0.1,0.3,0.1,0.4,0.1c0.3,0,0.6-0.1,0.8-0.3
		c0.3-0.2,0.6-0.6,0.8-0.9c-0.2-0.3-0.4-0.7-0.7-0.9l0.7-1.4c0.3,0.3,0.6,0.6,0.8,0.9c0.2,0.3,0.3,0.7,0.3,1.1
		c0,0.3-0.1,0.6-0.2,0.9c-0.1,0.3-0.3,0.7-0.5,0.9c-0.2,0.3-0.5,0.5-0.8,0.7c-0.3,0.2-0.7,0.3-1,0.3
		C1091.2,144,1091,143.9,1090.8,143.8L1090.8,143.8z M1047.2,143.8c-0.2-0.1-0.4-0.2-0.6-0.3c-0.2-0.1-0.3-0.3-0.4-0.5
		c-0.1-0.2-0.2-0.5-0.2-0.8c0-0.2,0-0.4,0.1-0.6c0-0.2,0.1-0.4,0.2-0.6c0.1-0.2,0.1-0.4,0.2-0.6s0.1-0.4,0.2-0.6l0.8,0.5
		c0,0.1-0.1,0.2-0.1,0.3s-0.1,0.2-0.1,0.3s-0.1,0.2-0.1,0.3c0,0.1,0,0.2,0,0.3c0,0.1,0,0.2,0.1,0.3l0.2,0.2c0.1,0.1,0.2,0.1,0.3,0.1
		c0.1,0,0.2,0,0.3,0c0.1,0,0.2,0,0.3,0c0.1,0,0.3,0,0.4-0.1c0.1,0,0.3-0.1,0.4-0.1s0.2-0.1,0.3-0.1l-0.5-2.2l1.2-0.6
		c0,0.2,0.1,0.4,0.1,0.6s0.1,0.4,0.1,0.5h2.1c-0.2,0-0.4,0.1-0.5,0.2c-0.1,0.1-0.2,0.3-0.2,0.5c0-0.2,0.1-0.4,0.2-0.5
		c0.1-0.1,0.3-0.2,0.5-0.2h2.6l-0.4-2l1.4-0.5c0,0.2,0.1,0.4,0.1,0.6s0.1,0.4,0.1,0.7s0.1,0.4,0.1,0.6c0,0.2,0,0.3,0,0.5
		c0,0.3-0.1,0.6-0.2,0.8c-0.1,0.2-0.3,0.4-0.5,0.5c-0.2,0.1-0.5,0.2-0.7,0.2c-0.3,0-0.6,0.1-0.9,0.1h-2.8c-0.2,0-0.3,0-0.5,0
		c-0.1,0-0.2-0.1-0.3-0.2v0.3c0,0.3-0.1,0.5-0.2,0.8c-0.2,0.2-0.4,0.4-0.6,0.6c-0.3,0.2-0.5,0.3-0.8,0.4c-0.3,0.1-0.6,0.1-0.9,0.1
		C1047.6,143.8,1047.4,143.8,1047.2,143.8L1047.2,143.8z M1057,141.7c0.2,0,0.4-0.1,0.6-0.1c0.2,0,0.4-0.1,0.6-0.2
		c0.2-0.1,0.4-0.2,0.6-0.3c-0.1-0.3-0.2-0.7-0.3-1c-0.2-0.3-0.4-0.6-0.6-0.8c-0.2-0.2-0.4-0.5-0.6-0.7c-0.2-0.2-0.4-0.4-0.6-0.5
		l0.5-1.4c0.5,0.5,0.8,0.9,1.1,1.2c0.3,0.3,0.5,0.6,0.7,0.9c0.3,0.5,0.5,1.1,0.5,1.7l0.2-0.2c0.1-0.1,0.1-0.2,0.2-0.3l-0.2-3.4
		l1.4-0.7v4.3c0.2,0.1,0.4,0.1,0.7,0.1h1.2c-0.2,0-0.4,0.1-0.5,0.2c-0.1,0.1-0.2,0.3-0.2,0.5c0-0.2,0.1-0.4,0.2-0.5
		c0.1-0.1,0.3-0.2,0.5-0.2h2.6l-0.4-2l1.4-0.5c0,0.2,0.1,0.4,0.1,0.6s0.1,0.4,0.1,0.7s0.1,0.4,0.1,0.6c0,0.2,0,0.3,0,0.5
		c0,0.3-0.1,0.6-0.2,0.8c-0.1,0.2-0.3,0.4-0.5,0.5c-0.2,0.1-0.5,0.2-0.7,0.2c-0.3,0-0.6,0.1-0.9,0.1h-2.8c-0.3,0-0.5,0-0.8-0.1
		c-0.2-0.1-0.4-0.2-0.5-0.4c-0.2,0.2-0.3,0.4-0.5,0.5c-0.2,0.2-0.4,0.3-0.6,0.5c-0.2,0.1-0.5,0.3-0.8,0.4c-0.3,0.1-0.6,0.2-0.9,0.2
		L1057,141.7z M1075.2,136.6l1.3-0.7v5.4l-1.3,0.7V136.6z M1067.4,136.6l1.3-0.7v5.4l-1.3,0.7V136.6z M1077.9,142
		c-0.1,0-0.3-0.1-0.4-0.2c-0.1-0.1-0.2-0.3-0.2-0.4c-0.1-0.2-0.1-0.5-0.1-0.7v-0.8l1.1-0.4c0,0.6,0.1,0.9,0.4,0.9l0.2,0
		c0.1,0,0.2,0,0.3,0s0.2,0,0.3,0c0.1,0,0.2,0,0.3-0.1l-0.4-2l1.3-0.9l0.2,1.8c0,0.2,0.1,0.5,0.2,0.7c0.1,0.1,0.1,0.3,0.2,0.4
		l0.2,0.2l0.2,0h1.2c-0.2,0-0.4,0.1-0.5,0.2c-0.1,0.1-0.2,0.3-0.2,0.5c0-0.2,0.1-0.4,0.2-0.5c0.1-0.1,0.3-0.2,0.5-0.2h2.6l-0.4-2
		l1.4-0.5c0,0.2,0.1,0.4,0.1,0.6s0.1,0.4,0.1,0.7s0.1,0.4,0.1,0.6c0,0.2,0,0.3,0,0.5c0,0.3-0.1,0.6-0.2,0.8
		c-0.1,0.2-0.3,0.4-0.5,0.5c-0.2,0.1-0.5,0.2-0.7,0.2c-0.3,0-0.6,0.1-0.9,0.1h-2.8c-0.2,0-0.3,0-0.5,0c-0.1,0-0.3,0-0.4-0.1
		c-0.1,0-0.2-0.1-0.3-0.2c-0.1-0.1-0.2-0.2-0.3-0.3c-0.1,0.1-0.2,0.2-0.4,0.3c-0.2,0.1-0.3,0.2-0.5,0.2c-0.2,0.1-0.3,0.1-0.5,0.1
		c-0.2,0-0.4,0.1-0.5,0.1C1078.1,142.1,1078,142,1077.9,142L1077.9,142z M1113.1,142c-0.3,0-0.7,0-1-0.1c-0.3-0.1-0.5-0.2-0.8-0.3
		c-0.2-0.1-0.4-0.3-0.5-0.6c-0.1-0.3-0.2-0.6-0.2-0.9c0-0.1,0-0.2,0-0.4s0-0.3,0-0.4c0-0.2,0.1-0.3,0.1-0.5l1.1-0.2
		c0,0.1,0,0.2,0,0.3s0,0.2,0,0.3c0,0.2,0,0.3,0.1,0.5c0,0.1,0.1,0.2,0.2,0.3c0.1,0.1,0.3,0.2,0.4,0.2c0.2,0,0.5,0.1,0.7,0.1h2.3
		l-0.4-2.1l1.4-0.4c0,0.3,0.1,0.5,0.1,0.7s0.1,0.4,0.1,0.6s0.1,0.4,0.1,0.5c0,0.2,0,0.4,0,0.5c0,0.6-0.3,1.1-0.8,1.4
		c-0.3,0.1-0.6,0.3-0.8,0.3c-0.3,0.1-0.7,0.1-1,0.1L1113.1,142z M1098.6,142h-0.2c-0.3,0-0.7,0-1-0.1c-0.3-0.1-0.5-0.2-0.8-0.3
		c-0.2-0.1-0.4-0.3-0.5-0.6c-0.1-0.3-0.2-0.6-0.2-0.9c0-0.1,0-0.3,0-0.4c0-0.2,0.1-0.3,0.1-0.5c0-0.2,0.1-0.4,0.1-0.5l1.1-0.2
		c0,0.1,0,0.2-0.1,0.3c0,0.1,0,0.2,0,0.3c0,0.1,0,0.1,0,0.2c0,0.3,0.1,0.6,0.3,0.7c0.3,0.2,0.7,0.3,1.1,0.2c0.1,0,0.3,0,0.5,0
		s0.4,0,0.7,0s0.5,0,0.7,0c0.2,0,0.4,0,0.6-0.1c-0.1-0.2-0.3-0.4-0.4-0.7c-0.2-0.2-0.3-0.5-0.5-0.7c-0.2-0.2-0.4-0.5-0.6-0.7
		l0.5-1.7l3.3-0.7l-0.4,1.5l-2.1,0.3c0.1,0.1,0.2,0.3,0.4,0.5c0.1,0.2,0.3,0.4,0.5,0.6s0.3,0.4,0.5,0.6c0.2,0.2,0.3,0.4,0.5,0.5
		c0.2,0.1,0.3,0.3,0.5,0.4c0.1,0.1,0.3,0.1,0.5,0.1h1.2c-0.2,0-0.4,0.1-0.5,0.2c-0.1,0.1-0.2,0.3-0.2,0.5c0-0.2,0.1-0.4,0.2-0.5
		c0.1-0.1,0.3-0.2,0.5-0.2h2.6l-0.4-2l1.4-0.5c0,0.2,0.1,0.4,0.1,0.6s0.1,0.4,0.1,0.7s0.1,0.4,0.1,0.6c0,0.2,0,0.3,0,0.5
		c0,0.3-0.1,0.6-0.2,0.8c-0.1,0.2-0.3,0.4-0.5,0.5c-0.2,0.1-0.5,0.2-0.7,0.2c-0.3,0-0.6,0.1-0.9,0.1h-2.8c-0.2,0-0.3,0-0.5-0.1
		c-0.1-0.1-0.3-0.1-0.4-0.2c-0.1-0.1-0.3-0.2-0.4-0.4c-0.1-0.1-0.2-0.3-0.4-0.4c-0.1,0.2-0.2,0.4-0.4,0.6c-0.2,0.2-0.4,0.3-0.6,0.4
		c-0.2,0.1-0.5,0.2-0.7,0.2c-0.3,0-0.6,0.1-0.8,0.1h-0.2c-0.1,0-0.2,0-0.3,0L1098.6,142z M1136,141.9h-1.2c-0.3,0-0.5,0-0.7,0
		c-0.2,0-0.3-0.1-0.5-0.1c-0.1-0.1-0.3-0.2-0.4-0.3c-0.1-0.1-0.2-0.3-0.3-0.5l-0.3,0.7c-0.3,0-0.6-0.1-0.8-0.1
		c-0.2,0-0.4-0.1-0.6-0.2c-0.2-0.1-0.3-0.2-0.4-0.4c-0.1-0.2-0.1-0.4-0.1-0.6c0-0.3,0.1-0.6,0.2-0.8c0.1-0.2,0.3-0.5,0.5-0.6
		c0.2-0.2,0.4-0.3,0.6-0.5c0.2-0.1,0.4-0.2,0.5-0.3l0-0.9l1.4,0.3v2.8h2c-0.2,0-0.4,0.1-0.5,0.2c-0.1,0.1-0.2,0.3-0.2,0.5
		c0-0.2,0.1-0.4,0.2-0.5c0.1-0.1,0.3-0.2,0.5-0.2h2.6l-0.4-2l1.4-0.5c0,0.2,0.1,0.4,0.1,0.6s0.1,0.4,0.1,0.7s0.1,0.4,0.1,0.6
		c0,0.2,0,0.3,0,0.5c0,0.3-0.1,0.6-0.2,0.8c-0.1,0.2-0.3,0.4-0.5,0.5c-0.2,0.1-0.5,0.2-0.7,0.2c-0.3,0-0.6,0.1-0.9,0.1L1136,141.9z
		 M1131.8,140l1,0.1l0-0.9L1131.8,140z M1072.1,141.9c-0.2,0-0.5,0-0.7-0.1c-0.2-0.1-0.3-0.2-0.4-0.3c-0.1-0.1-0.2-0.3-0.2-0.5
		c0-0.2-0.1-0.4-0.1-0.6v-0.3c0-0.1,0-0.2,0-0.3l1-0.4v0.2c0,0.2,0,0.3,0.2,0.4c0.2,0.1,0.3,0.2,0.5,0.1c0.1,0,0.2,0,0.3,0
		c0.1,0,0.2,0,0.3,0c0.1,0,0.2,0,0.3-0.1c0.1,0,0.1,0,0.2-0.1c-0.1-0.2-0.1-0.3-0.2-0.5c-0.1-0.2-0.2-0.3-0.3-0.5
		c-0.1-0.1-0.2-0.3-0.4-0.4c-0.1-0.1-0.3-0.2-0.5-0.2l0.4-1.2c0-0.1,0.1-0.2,0.2-0.2l0.2-0.1c0.3,0,0.5,0.1,0.7,0.3
		c0.2,0.2,0.4,0.5,0.5,0.7c0.1,0.3,0.3,0.6,0.3,1c0.1,0.3,0.1,0.6,0.1,1c0,0.3,0,0.5-0.2,0.8c-0.1,0.2-0.2,0.4-0.4,0.6
		c-0.2,0.2-0.4,0.3-0.7,0.3c-0.3,0.1-0.6,0.1-0.9,0.1L1072.1,141.9z M1047,139.2l0.5-1.1l1.1,0.5l-0.4,1.1L1047,139.2z
		 M1153.4,137.2l0.5-1.2l1.1,0.5l0.4-0.9l1.2,0.6l-0.5,1.2l-1.1-0.5l-0.4,0.9L1153.4,137.2z M1064.1,137.2l0.5-1.1l1.1,0.5l-0.4,1.1
		L1064.1,137.2z M1124,136.8l0.5-1.1l1.1,0.5l-0.4,1.1L1124,136.8z M1066.1,135.4c0-0.1,0.1-0.2,0.1-0.3c0.1-0.1,0.1-0.3,0.2-0.4
		c0.1-0.1,0.2-0.2,0.2-0.3c0.1-0.1,0.1-0.1,0.2-0.1l0.2,0c0.1,0,0.2,0.1,0.3,0.1s0.3,0.1,0.4,0.1c0.2,0,0.3,0,0.5,0
		c0.2,0,0.5,0,0.7-0.1c0.3,0,0.5-0.1,0.7-0.2l-0.2,1.1c-0.2,0.1-0.4,0.2-0.7,0.3c-0.3,0.1-0.5,0.1-0.8,0.1c-0.2,0-0.4,0-0.6,0
		c-0.2,0-0.3-0.1-0.5-0.1l-0.1,0.5L1066.1,135.4z"/>
	<path id="Shape_20" class="st1" d="M1139.7,132.2c-0.7,0-1.2-0.5-1.2-1.2c0,0,0,0,0,0l0,0l0,0c0-0.7,0.5-1.2,1.2-1.2c0,0,0,0,0,0
		h8.4c0.7,0,1.2,0.5,1.2,1.2c0,0,0,0,0,0l0,0l0,0c0,0.7-0.5,1.2-1.2,1.2c0,0,0,0,0,0H1139.7z M1074.4,132.2c-0.7,0-1.2-0.5-1.2-1.2
		c0-0.7,0.5-1.2,1.2-1.2h8.4c0.7,0,1.2,0.5,1.2,1.2c0,0.7-0.5,1.2-1.2,1.2H1074.4z M1135.5,126.7c-0.7,0-1.2-0.5-1.2-1.2
		s0.5-1.2,1.2-1.2h9.6c2.2,0.1,4.1-1.7,4.2-3.9c0-0.1,0-0.2,0-0.3v-5.5c0-0.7,0.5-1.2,1.2-1.2s1.2,0.5,1.2,1.2c0,0,0,0,0,0v5.5
		c0.2,3.5-2.6,6.5-6.1,6.7c-0.2,0-0.3,0-0.5,0L1135.5,126.7z M1098.6,126.7c-0.7,0-1.2-0.5-1.2-1.2s0.5-1.2,1.2-1.2h30.4
		c0.4,0,3.5-0.1,4.1-3.2c0.1-0.7,0.7-1.1,1.3-1.1c0.7,0.1,1.1,0.7,1.1,1.3c0,0,0,0.1,0,0.1c-0.5,3.1-3.3,5.4-6.5,5.3L1098.6,126.7z
		 M1087.9,126.7c-0.7,0-1.2-0.5-1.2-1.2s0.5-1.2,1.2-1.2h4.2c2.2,0.1,4.1-1.7,4.2-3.9c0-0.1,0-0.2,0-0.4c0-2.3-1.9-4.2-4.2-4.2h-6.9
		v4.2c0,2.3-1.4,6.7-6.6,6.7h-4.2c-0.7,0-1.2-0.5-1.2-1.2s0.5-1.2,1.2-1.2h4.2c2.2,0.1,4.1-1.6,4.2-3.9c0-0.1,0-0.2,0-0.4v-6.7h9.3
		c3.7,0,6.6,3,6.6,6.7c0,2.3-1.4,6.7-6.6,6.7H1087.9z M1061.3,126.7v-21.8c0-0.7,0.5-1.2,1.2-1.2s1.2,0.5,1.2,1.2c0,0,0,0,0,0v19.4
		h4.2c2.2,0.1,4.1-1.6,4.2-3.9c0-0.1,0-0.2,0-0.4v-4.2c0-0.7,0.5-1.2,1.2-1.2s1.2,0.5,1.2,1.2c0,0,0,0,0,0v4.2
		c0,2.3-1.4,6.7-6.6,6.7L1061.3,126.7z M1047.6,126.7c-0.7,0-1.2-0.5-1.2-1.2s0.5-1.2,1.2-1.2h4.2c4,0,4.2-3.8,4.2-4.2v-4.2
		c0-0.7,0.5-1.2,1.2-1.2c0.7,0,1.2,0.5,1.2,1.2v4.2c0,2.3-1.4,6.7-6.6,6.7L1047.6,126.7z M1154.3,124.3v-19.4c0-0.7,0.5-1.2,1.2-1.2
		c0,0,0,0,0,0l0,0l0,0c0.7,0,1.2,0.5,1.2,1.2c0,0,0,0,0,0v19.4c0,0.7-0.5,1.2-1.2,1.2C1154.9,125.5,1154.3,125,1154.3,124.3
		L1154.3,124.3z M1073.3,109.2L1073.3,109.2c-0.7,0-1.2-0.5-1.2-1.2c0,0,0,0,0,0v-3c0-0.7,0.5-1.2,1.2-1.2c0,0,0,0,0,0l0,0l0,0
		c0.7,0,1.2,0.5,1.2,1.2c0,0,0,0,0,0v3C1074.4,108.6,1073.9,109.1,1073.3,109.2C1073.3,109.2,1073.3,109.2,1073.3,109.2
		L1073.3,109.2z"/>
	<path id="Shape_19" class="st1" d="M1168.8,130.2c-0.6-1.9-0.8-3.9-0.8-5.9l0,0c0.7-1,1.5-2,2.4-2.9c0.6-0.6,1.2-1.2,1.8-1.8l0,0
		c9.3-8.1,23.2-8.1,32.6,0l0,0c0.6,0.6,1.3,1.1,1.8,1.8c0.9,0.9,1.6,1.9,2.4,2.9c-1.2,1.7-2.6,3.3-4.2,4.7
		c-6.1,5.3-14.5,7.3-22.4,5.3c-1-0.3-1.5-1.2-1.3-2.2c0.1-0.3,0.2-0.6,0.5-0.8c0.4-0.4,1.1-0.6,1.7-0.5c7.7,2,15.9-0.6,21.2-6.5
		c-7.8-8.8-21.2-9.7-30-1.9c-0.7,0.6-1.3,1.2-1.9,1.9c-0.3,0.4-0.7,0.8-1,1.2c0.1,1.2,0.3,2.4,0.6,3.5c2,7.3,8.7,12.4,16.3,12.4
		c3.9,0,7.8-1.4,10.8-3.9c0.7-0.6,1.7-0.5,2.4,0.1c0.7,0.7,0.7,1.9,0,2.6c0,0-0.1,0.1-0.1,0.1c-3.7,3.1-8.3,4.7-13.1,4.7
		C1179.4,145,1171.4,138.9,1168.8,130.2z M1186.4,125.8c-0.8,0-1.5-0.7-1.5-1.5s0.7-1.5,1.5-1.5h4.1c0.8,0,1.5,0.7,1.5,1.5
		s-0.7,1.5-1.5,1.5H1186.4z M1200.5,112.2c-0.6-0.6-0.6-1.5,0-2.1l2.9-3c0.6-0.6,1.5-0.6,2.1,0c0,0,0,0,0,0c0.6,0.6,0.6,1.5,0,2.1
		l-2.9,3C1202.1,112.8,1201.1,112.8,1200.5,112.2C1200.5,112.2,1200.5,112.2,1200.5,112.2L1200.5,112.2z M1174.3,112.2l-2.9-3
		c-0.6-0.6-0.6-1.5,0-2.1c0.6-0.6,1.5-0.6,2.1,0c0,0,0,0,0,0l2.9,3c0.6,0.6,0.6,1.5,0,2.1C1175.9,112.8,1175,112.8,1174.3,112.2
		C1174.4,112.2,1174.4,112.2,1174.3,112.2L1174.3,112.2z M1187,105.7v-4.2c-0.1-0.8,0.6-1.5,1.4-1.6s1.5,0.6,1.6,1.4
		c0,0.1,0,0.1,0,0.2v4.2c0.1,0.8-0.6,1.5-1.4,1.6s-1.5-0.6-1.6-1.4C1187,105.8,1187,105.8,1187,105.7z"/>
</g>
</svg>
